<?xml version="1.0" encoding="utf-8"?><svg xmlns="http://www.w3.org/2000/svg" xmlns:xlink="http://www.w3.org/1999/xlink"><symbol viewBox="0 0 791.966 791.967" id="arrow-left" xmlns="http://www.w3.org/2000/svg"><path d="M245.454 396.017L617.077 56.579c12.973-12.94 12.973-33.934 0-46.874-12.973-12.94-34.033-12.94-47.006 0L174.615 370.896c-6.932 6.899-9.87 16.076-9.408 25.087-.462 9.045 2.476 18.188 9.408 25.088l395.456 361.19c12.973 12.94 34.033 12.94 47.006 0 12.973-12.939 12.973-33.934 0-46.873L245.454 396.017z"/></symbol><symbol viewBox="0 0 792.033 792.033" id="arrow-right" xmlns="http://www.w3.org/2000/svg"><path d="M617.858 370.896L221.513 9.705c-13.006-12.94-34.099-12.94-47.105 0-13.006 12.939-13.006 33.934 0 46.874l372.447 339.438-372.414 339.437c-13.006 12.94-13.006 33.935 0 46.874s34.099 12.939 47.104 0l396.346-361.191c6.932-6.898 9.904-16.043 9.441-25.087.431-9.078-2.54-18.222-9.474-25.154z"/></symbol><symbol viewBox="0 0 17.1 21.3" id="basket" xmlns="http://www.w3.org/2000/svg"><path class="cdst0" d="M16 20.3H1v-15l15.1.1z"/><path fill="currentColor" class="cdst0 cdst1" d="M5.1 5.4c0-5.7 6.7-5.9 6.7 0"/></symbol><symbol viewBox="0 0 25 25" id="close" xmlns="http://www.w3.org/2000/svg"><path fill="#6c6c6c" d="M22.898.02l2.08 2.08L14.58 12.5l10.398 10.398-2.08 2.08L12.5 14.579 2.1 24.978l-2.079-2.08L10.42 12.499.02 2.101 2.101.02 12.5 10.418z"/><path fill="#666" d="M22.898.02l2.08 2.08L14.58 12.5l10.398 10.398-2.08 2.08L12.5 14.579 2.1 24.978l-2.079-2.08L10.42 12.499.02 2.101 2.101.02 12.5 10.418z"/></symbol><symbol viewBox="0 0 512 512" id="controls" xmlns="http://www.w3.org/2000/svg"><g xmlns="http://www.w3.org/2000/svg"><path d="M-84.48-56.108v624.214c0 15.67 12.702 28.373 28.372 28.373h624.213c15.672 0 28.375-12.702 28.375-28.373V-56.106c0-15.67-12.703-28.373-28.373-28.373H-56.108c-15.67-.002-28.372 12.701-28.372 28.371zm624.212 28.374v567.466H-27.733V-27.735h567.465z" data-original="#000000"/><path d="M511.36 426.24c0-47.023-38.098-85.12-85.12-85.12-37.07 0-68.578 23.684-80.26 56.746H29.011C13.342 397.866.64 410.57.64 426.24c0 15.67 12.702 28.373 28.372 28.373H345.98c11.683 33.063 43.19 56.747 80.26 56.747 47.023 0 85.12-38.097 85.12-85.12zm-113.493 0c0-15.683 12.69-28.374 28.373-28.374s28.372 12.691 28.372 28.373-12.69 28.373-28.372 28.373-28.373-12.69-28.373-28.373zM166.02 114.132h316.967c15.67 0 28.373-12.703 28.373-28.373 0-15.67-12.703-28.373-28.373-28.373H166.02C154.337 24.324 122.83.64 85.76.64 38.737.64.64 38.737.64 85.76s38.097 85.12 85.12 85.12c37.07 0 68.577-23.684 80.26-56.747zM57.387 85.76c0-15.682 12.69-28.373 28.373-28.373s28.372 12.691 28.372 28.373-12.69 28.373-28.372 28.373-28.373-12.69-28.373-28.373zM336.26 284.372h146.727c15.67 0 28.373-12.703 28.373-28.373s-12.703-28.373-28.373-28.373H336.26c-11.683-33.062-43.19-56.747-80.26-56.747s-68.578 23.685-80.26 56.747H29.011C13.342 227.626.64 240.33.64 256s12.702 28.373 28.372 28.373H175.74c11.683 33.063 43.19 56.747 80.26 56.747s68.578-23.684 80.26-56.747zM227.627 256c0-15.682 12.69-28.373 28.373-28.373s28.372 12.691 28.372 28.373-12.69 28.373-28.372 28.373-28.373-12.69-28.373-28.373z" data-original="#000000"/></g></symbol><symbol viewBox="0 0 512 512" id="download" xmlns="http://www.w3.org/2000/svg"><path d="M240.915 377.752l.023.021c.49.488 1.004.952 1.54 1.392.248.204.509.38.764.571.302.226.598.461.913.671.304.204.62.38.932.566.285.17.564.349.857.506.318.17.646.315.971.468.306.145.607.297.921.428.315.13.637.236.957.35.337.121.669.25 1.013.354.32.097.646.168.969.249.351.089.698.187 1.055.258.375.074.753.118 1.13.173.311.044.617.104.933.135 1.4.138 2.811.138 4.211 0 .315-.031.621-.09.933-.135.377-.054.756-.098 1.13-.173.358-.071.704-.169 1.055-.258.324-.081.649-.152.969-.249.344-.104.677-.233 1.013-.354.32-.115.642-.22.957-.35.314-.13.615-.283.921-.428.325-.153.653-.297.971-.468.293-.157.572-.336.857-.506.312-.186.628-.363.932-.566.315-.211.611-.445.913-.671.255-.191.516-.368.764-.571.535-.439 1.05-.903 1.54-1.392l.023-.021 106.667-106.667c8.331-8.331 8.331-21.839 0-30.17-8.331-8.331-21.839-8.331-30.17 0l-70.248 70.248V21.333C277.333 9.551 267.782 0 256 0s-21.333 9.551-21.333 21.333v289.83l-70.248-70.248c-8.331-8.331-21.839-8.331-30.17 0s-8.331 21.839 0 30.17l106.666 106.667z"/><path d="M490.667 362.667c-11.782 0-21.333 9.551-21.333 21.333v85.333H42.667V384c0-11.782-9.551-21.333-21.333-21.333C9.551 362.667 0 372.218 0 384v106.667C0 502.449 9.551 512 21.333 512h469.333c11.782 0 21.333-9.551 21.333-21.333V384c.001-11.782-9.55-21.333-21.332-21.333z"/></symbol><symbol viewBox="0 0 11 7" id="dropdown" xmlns="http://www.w3.org/2000/svg"><path d="M.55 1.499L1.964.085 5.5 3.62 9.035.085l1.414 1.414-4.95 4.95-1.414-1.414z"/><path d="M.55 1.499L1.964.085 5.5 3.62 9.035.085l1.414 1.414-4.95 4.95-1.414-1.414z"/></symbol><symbol viewBox="0 0 512 394.59" id="eye-close" xmlns="http://www.w3.org/2000/svg"><path d="M508.74 188.84C504.17 182.58 395.19 35.63 256 35.63S7.82 182.58 3.25 188.83a16.91 16.91 0 000 19.93C7.82 215 116.81 362 256 362s248.17-147 252.74-153.24a16.87 16.87 0 000-19.92zM256 328.2c-102.53 0-191.33-97.53-217.62-129.41C64.63 166.87 153.25 69.39 256 69.39c102.52 0 191.32 97.52 217.61 129.42C447.36 230.72 358.75 328.2 256 328.2z"/><path d="M256 97.52A101.28 101.28 0 10357.27 198.8 101.4 101.4 0 00256 97.52zm0 168.79a67.52 67.52 0 1167.51-67.51A67.59 67.59 0 01256 266.31z"/><path d="M425.2-.003l28.094 28.094-366.5 366.5L58.7 366.498z"/></symbol><symbol viewBox="0 0 96.124 96.123" id="facebook" xmlns="http://www.w3.org/2000/svg"><path d="M72.089.02L59.624 0C45.62 0 36.57 9.285 36.57 23.656v10.907H24.037a1.96 1.96 0 00-1.96 1.961v15.803a1.96 1.96 0 001.96 1.96H36.57v39.876a1.96 1.96 0 001.96 1.96h16.352a1.96 1.96 0 001.96-1.96V54.287h14.654a1.96 1.96 0 001.96-1.96l.006-15.803a1.963 1.963 0 00-1.961-1.961H56.842v-9.246c0-4.444 1.059-6.7 6.848-6.7l8.397-.003a1.96 1.96 0 001.959-1.96V1.98A1.96 1.96 0 0072.089.02z"/></symbol><symbol viewBox="0 0 96.124 96.123" id="facebook-logo" xmlns="http://www.w3.org/2000/svg"><path d="M72.089.02L59.624 0C45.62 0 36.57 9.285 36.57 23.656v10.907H24.037a1.96 1.96 0 00-1.96 1.961v15.803a1.96 1.96 0 001.96 1.96H36.57v39.876a1.96 1.96 0 001.96 1.96h16.352a1.96 1.96 0 001.96-1.96V54.287h14.654a1.96 1.96 0 001.96-1.96l.006-15.803a1.963 1.963 0 00-1.961-1.961H56.842v-9.246c0-4.444 1.059-6.7 6.848-6.7l8.397-.003a1.96 1.96 0 001.959-1.96V1.98A1.96 1.96 0 0072.089.02z"/></symbol><symbol viewBox="0 0 64 64" id="fullscreen" xmlns="http://www.w3.org/2000/svg"><path d="M26.586 34.586L12 49.172V44a2 2 0 00-4 0v10a2 2 0 002 2h10a2 2 0 000-4h-5.172l14.586-14.586a2 2 0 10-2.828-2.828zM54 8H44a2 2 0 000 4h5.172L34.586 26.586a2 2 0 102.828 2.828L52 14.828V20a2 2 0 004 0V10a2 2 0 00-2-2z"/></symbol><symbol viewBox="0 0 21.6 19.1" id="heart" xmlns="http://www.w3.org/2000/svg"><path class="lgst0" d="M10.8 3.7c5.5-6.8 12.6 1.4 8.7 5.7l-8.8 8.8L2 9.4C-1.5 5 5.3-3.2 10.8 3.7z"/></symbol><symbol viewBox="0 0 26 26" id="instagram" xmlns="http://www.w3.org/2000/svg"><path d="M20 7c-.551 0-1-.449-1-1V4c0-.551.449-1 1-1h2c.551 0 1 .449 1 1v2c0 .551-.449 1-1 1h-2zm-7 2.188c-.726 0-1.396.213-1.973.563.18-.056.367-.093.564-.093a1.933 1.933 0 11-1.933 1.934c0-.199.039-.386.094-.565A3.77 3.77 0 009.188 13a3.81 3.81 0 003.813 3.813A3.812 3.812 0 1013 9.188z"/><path d="M13 7a6 6 0 110 12 6 6 0 010-12m0-2c-4.411 0-8 3.589-8 8s3.589 8 8 8 8-3.589 8-8-3.589-8-8-8z"/><path d="M21.125 0H4.875A4.874 4.874 0 000 4.875v16.25A4.874 4.874 0 004.875 26h16.25A4.874 4.874 0 0026 21.125V4.875A4.874 4.874 0 0021.125 0zM24 9h-6.537A5.97 5.97 0 0119 13a6 6 0 01-12 0c0-1.539.584-2.938 1.537-4H2V4.875A2.879 2.879 0 014.875 2h16.25A2.878 2.878 0 0124 4.875V9z"/></symbol><symbol viewBox="0 0 100 94.99" id="like" xmlns="http://www.w3.org/2000/svg"><path d="M36.35 95l.14-.13.12-.13a2 2 0 01.11-.26v-6.21c-.08-6.53-.08-13.16-.08-19.57 0-5.35 0-12.41.08-19.57 0-.51 0-3.72.08-5.9l.09-3.88H8.71a8.25 8.25 0 00-8 4.85c-.14.29-.25.57-.35.81l-.11.25L0 46v43l.5.88c.08.13.16.3.25.48a10.83 10.83 0 001.29 2A7.7 7.7 0 008 95h28.35zm-7.27-48v2.08C29 56.3 29 63.35 29 68.7c0 6.14 0 12.49.07 18.77H7.76a4.33 4.33 0 01-.23-.41V47.42c.15-.32.22-.47 1.08-.47h20.47V47z"/><path d="M40.67 92.2a16.73 16.73 0 01-9.17-2.6l-1.78-1.13v-2.11c.07-10 .1-20.84.1-34.22V41.63l1-1.09L32 39a50.08 50.08 0 003.34-4.48c1.88-3 3.7-6.2 5.46-9.26l2.26-3.92a1.67 1.67 0 00.23-1c-.09-2.13-.13-4.28-.17-6.35 0-1.22 0-2.49-.08-3.73a9 9 0 015.13-8.55A14.61 14.61 0 0161 1.27a9.77 9.77 0 015.52 5.84l.93 2.42c.84 2.2 1.7 4.47 2.49 6.75a23.26 23.26 0 01.52 12.33c-.27 1.38-.5 2.76-.74 4.19h17.86a16 16 0 015.17.83 10.59 10.59 0 016.86 7.9 1.61 1.61 0 00.13.42l.1.31.16.58v4.54l-.4.53a14.13 14.13 0 01-2 4.59 13.74 13.74 0 01.51 3 13.21 13.21 0 01-2.37 7.88 11.71 11.71 0 01.45 2.5 14.06 14.06 0 01-2.34 8.54 15.58 15.58 0 01.27 4.72 13.4 13.4 0 01-9.51 12 23.81 23.81 0 01-7.41 1H40.67zm-3.34-8.13a9.87 9.87 0 003.41.55c8.93-.05 18 0 26.79 0h9.66a16.58 16.58 0 005-.61 5.83 5.83 0 004.3-5.37 7.2 7.2 0 00-.3-3.13 4.74 4.74 0 01.81-4.46 6.88 6.88 0 001.62-4.67 9.48 9.48 0 00-.48-1.85 4.9 4.9 0 01.86-4.7 6.23 6.23 0 001.55-4.07 7.82 7.82 0 00-.29-1.44c-.11-.43-.23-.91-.33-1.43a4.54 4.54 0 011-4.08 6.56 6.56 0 001.43-3.28V44c0-.17-.1-.35-.15-.55-.47-1.84-1.29-2.36-2-2.62a8.32 8.32 0 00-2.71-.4H66.22a4.24 4.24 0 01-4.67-3.76 4.11 4.11 0 01.13-1.6l.42-2.55c.28-1.74.57-3.54.92-5.33a15.76 15.76 0 00-.25-8.4c-.74-2.17-1.59-4.38-2.4-6.51l-.94-2.48a2.27 2.27 0 00-1.36-1.52 7 7 0 00-6.38.15 1.52 1.52 0 00-1.07 1.62c0 1.27.06 2.55.08 3.78 0 2 .08 4.14.17 6.19a9.37 9.37 0 01-1.25 5.14L47.38 29c-1.79 3.12-3.65 6.35-5.59 9.48A55.7 55.7 0 0138 43.75l-.55.68v7.72c-.04 12.38-.06 22.57-.12 31.92z"/></symbol><symbol viewBox="0 0 512 512" id="location" xmlns="http://www.w3.org/2000/svg"><path fill="#FFF" d="M256 0C153.755 0 70.573 83.182 70.573 185.426c0 126.888 165.939 313.167 173.004 321.035 6.636 7.391 18.222 7.378 24.846 0 7.065-7.868 173.004-194.147 173.004-321.035C441.425 83.182 358.244 0 256 0zm0 469.729c-55.847-66.338-152.035-197.217-152.035-284.301 0-83.834 68.202-152.036 152.035-152.036s152.035 68.202 152.035 152.035C408.034 272.515 311.861 403.37 256 469.729z"/><path fill="#FFF" d="M256 92.134c-51.442 0-93.292 41.851-93.292 93.293S204.559 278.72 256 278.72s93.291-41.851 93.291-93.293S307.441 92.134 256 92.134zm0 153.194c-33.03 0-59.9-26.871-59.9-59.901s26.871-59.901 59.9-59.901 59.9 26.871 59.9 59.901-26.871 59.901-59.9 59.901z"/></symbol><symbol viewBox="0 0 320.002 320.002" id="logout" xmlns="http://www.w3.org/2000/svg"><path d="M51.213 175.001h173.785c8.284 0 15-6.716 15-15 0-8.284-6.716-15-15-15H51.213l19.394-19.394c5.858-5.858 5.858-15.355 0-21.213-5.857-5.858-15.355-5.858-21.213 0L4.396 149.393c-.351.351-.683.719-.997 1.103-.137.167-.256.344-.385.515-.165.22-.335.435-.488.664-.14.209-.261.426-.389.64-.123.206-.252.407-.365.619-.118.22-.217.446-.323.67-.104.219-.213.435-.306.659-.09.219-.164.442-.243.664-.087.24-.179.477-.253.722-.067.222-.116.447-.172.672-.063.249-.133.497-.183.751-.051.259-.082.521-.119.782-.032.223-.075.443-.097.669a15.09 15.09 0 00-.074 1.457l-.001.022.001.022c.001.487.026.973.074 1.458.022.223.064.44.095.661.038.264.069.528.121.79.05.252.119.496.182.743.057.227.107.456.175.681.073.241.164.474.248.71.081.226.155.453.247.675.091.22.198.431.3.646.108.229.21.46.33.685.11.205.235.4.354.599.131.221.256.444.4.659.146.219.309.424.466.635.136.181.262.368.407.544.299.364.616.713.947 1.048.016.016.029.034.045.05l45 45.001A14.956 14.956 0 0060 220.003a14.96 14.96 0 0010.606-4.393c5.858-5.858 5.858-15.355.001-21.213l-19.394-19.396z"/><path d="M305.002 25h-190c-8.284 0-15 6.716-15 15v60c0 8.284 6.716 15 15 15s15-6.716 15-15V55h160v210.001h-160V220c0-8.284-6.716-15-15-15s-15 6.716-15 15v60.001c0 8.284 6.716 15 15 15h190c8.284 0 15-6.716 15-15V40c0-8.284-6.716-15-15-15z"/></symbol><symbol id="long-arrow" viewBox="0 0 11.36 3.15" xml:space="preserve" clip-rule="evenodd" fill-rule="evenodd" image-rendering="optimizeQuality" shape-rendering="geometricPrecision" text-rendering="geometricPrecision" xmlns="http://www.w3.org/2000/svg"><defs id="qdefs12"><style id="qstyle10" type="text/css"/></defs><g id="qLayer_x0020_1"><path id="qrect15" class="qfil0" d="M0 1.24h11.36v.65H0z"/><path id="qpolygon17" class="qfil0" d="M9.41 3.15h.66v-.31h.33v-.31h.33v-.31h.32V.94h-.32V.62h-.33V.31h-.33V0h-.66v.62h.32v.32h.35v1.28h-.35v.31h-.32v.31z"/></g></symbol><symbol id="mail" viewBox="0 0 5.91 4.53" xml:space="preserve" shape-rendering="geometricPrecision" text-rendering="geometricPrecision" image-rendering="optimizeQuality" fill-rule="evenodd" clip-rule="evenodd" xmlns="http://www.w3.org/2000/svg"><defs id="rdefs12"><style id="rstyle10" type="text/css">.rfil0{fill:#fefefe;fill-rule:nonzero}</style></defs><g id="rLayer_x0020_1"><path id="rpath15" d="M5.91.29v4.24H0V0h5.91v.29zm-.58 3.65V.58H.59v3.36h4.74z" class="rfil0"/><path id="rpath17" d="M5.78.54L3.11 2.57a.3.3 0 01-.37-.01L.11.52A.289.289 0 01.06.11C.12.04.2 0 .29 0h5.33c.16 0 .29.13.29.29 0 .1-.05.19-.13.24zM2.93 1.98L4.75.59H1.14l1.79 1.39z" class="rfil0"/></g></symbol><symbol viewBox="0 0 24 24" id="odnoklassniki" xmlns="http://www.w3.org/2000/svg"><path d="M4.721 12.881c-.613 1.205.083 1.781 1.671 2.765 1.35.834 3.215 1.139 4.413 1.261l-4.721 4.541c-1.374 1.317.838 3.43 2.211 2.141l3.717-3.585c1.423 1.369 2.787 2.681 3.717 3.59 1.374 1.294 3.585-.801 2.226-2.141-.102-.097-5.037-4.831-4.736-4.541 1.213-.122 3.05-.445 4.384-1.261l-.001-.001c1.588-.989 2.284-1.564 1.68-2.769-.365-.684-1.349-1.256-2.659-.267 0 0-1.769 1.355-4.622 1.355-2.854 0-4.622-1.355-4.622-1.355-1.309-.994-2.297-.417-2.658.267z"/><path d="M11.999 12.142c3.478 0 6.318-2.718 6.318-6.064 0-3.36-2.84-6.078-6.318-6.078C8.52 0 5.68 2.718 5.68 6.078c0 3.346 2.84 6.064 6.319 6.064zm0-9.063c1.709 0 3.103 1.341 3.103 2.999 0 1.644-1.394 2.985-3.103 2.985S8.896 7.722 8.896 6.078c-.001-1.659 1.393-2.999 3.103-2.999z"/></symbol><symbol id="phone" viewBox="0 0 3.56 4.65" xml:space="preserve" shape-rendering="geometricPrecision" text-rendering="geometricPrecision" image-rendering="optimizeQuality" fill-rule="evenodd" clip-rule="evenodd" xmlns="http://www.w3.org/2000/svg"><defs id="tdefs12"><style id="tstyle10" type="text/css">.tstr0{stroke:#fefefe;stroke-width:.46;stroke-miterlimit:22.9256}.tfil0{fill:none}</style></defs><g id="tLayer_x0020_1"><path id="trect15" class="tfil0 tstr0" d="M.23.23h3.1v4.19H.23z"/><path id="tline17" class="tfil0 tstr0" d="M1.36 3.41h.85"/></g></symbol><symbol viewBox="0 0 16 19" id="play" xmlns="http://www.w3.org/2000/svg"><defs><clipPath id="ua"><path fill="#fff" d="M15.995 9.496l-16 9.505V-.008z"/></clipPath></defs><path d="M15.995 9.496l-16 9.505V-.008z"/><path fill="#fff" d="M15.995 9.496l-16 9.505V-.008z"/><path fill="none" d="M15.995 9.496l-16 9.505V-.008z" clip-path="url(#ua)"/></symbol><symbol viewBox="0 0 7.4 8.23" shape-rendering="geometricPrecision" text-rendering="geometricPrecision" image-rendering="optimizeQuality" fill-rule="evenodd" clip-rule="evenodd" id="reset" xmlns="http://www.w3.org/2000/svg"><path d="M2.5 2.15c.2 0 .36.16.36.36 0 .2-.16.36-.36.36H.28c-.02 0-.04-.01-.06-.02l-.04-.02-.02-.01a.376.376 0 01-.17-.3V.36c0-.2.16-.36.36-.36.2 0 .36.16.36.36v1.12C1.44.77 2.43.36 3.46.36 5.63.36 7.4 2.12 7.4 4.3c0 2.17-1.76 3.94-3.94 3.94-1.41 0-2.71-.75-3.41-1.97a.329.329 0 01-.04-.17c0-.2.16-.36.36-.36.12 0 .24.06.3.17.57 1 1.64 1.61 2.79 1.61 1.78 0 3.22-1.44 3.22-3.22 0-1.78-1.44-3.22-3.22-3.22-.91 0-1.79.39-2.4 1.07H2.5z"/></symbol><symbol id="search" viewBox="0 0 3.6 3.6" xml:space="preserve" shape-rendering="geometricPrecision" text-rendering="geometricPrecision" image-rendering="optimizeQuality" fill-rule="evenodd" clip-rule="evenodd" xmlns="http://www.w3.org/2000/svg"><defs id="wdefs12"><style id="wstyle10" type="text/css">.wfil0{fill:#000}</style></defs><g id="wLayer_x0020_1"><path id="wpolygon15" class="wfil0" d="M2.32 2.6l1 1 .28-.28-1-1z"/><path id="wpath17" d="M2.64.45a1.545 1.545 0 010 2.18 1.545 1.545 0 01-2.18 0 1.545 1.545 0 010-2.18 1.545 1.545 0 012.18 0zm.06 1.09c0-.29-.11-.59-.34-.81a1.137 1.137 0 00-1.62 0C.52.95.4 1.25.4 1.54c0 .29.11.59.34.81.22.22.52.34.81.34.29 0 .59-.11.81-.34.23-.22.34-.52.34-.81z" class="wfil0"/></g></symbol><symbol viewBox="0 0 18 20" id="settings" xmlns="http://www.w3.org/2000/svg"><defs><clipPath id="xa"><path fill="#fff" d="M5 0a3 3 0 110 6 3 3 0 010-6z"/></clipPath><clipPath id="xb"><path fill="#fff" d="M9 7a3 3 0 110 6 3 3 0 010-6z"/></clipPath><clipPath id="xc"><path fill="#fff" d="M13 14a3 3 0 110 6 3 3 0 010-6z"/></clipPath></defs><path fill="#e4e4e4" d="M0 2h18v2H0zm0 7h18v2H0zm0 7h18v2H0z"/><path fill="#1e2026" d="M0 2h18v2H0zm0 7h18v2H0zm0 7h18v2H0z"/><path fill="#e4e4e4" d="M5 0a3 3 0 110 6 3 3 0 010-6z"/><path fill="#fff" d="M5 0a3 3 0 110 6 3 3 0 010-6z"/><path fill="none" d="M5 0a3 3 0 110 6 3 3 0 010-6z" clip-path="url(#xa)"/><path fill="#e4e4e4" d="M9 7a3 3 0 110 6 3 3 0 010-6z"/><path fill="#fff" d="M9 7a3 3 0 110 6 3 3 0 010-6z"/><path fill="none" d="M9 7a3 3 0 110 6 3 3 0 010-6z" clip-path="url(#xb)"/><g><path fill="#e4e4e4" d="M13 14a3 3 0 110 6 3 3 0 010-6z"/><path fill="#fff" d="M13 14a3 3 0 110 6 3 3 0 010-6z"/><path fill="none" d="M13 14a3 3 0 110 6 3 3 0 010-6z" clip-path="url(#xc)"/></g></symbol><symbol id="user" viewBox="0 0 4.99 5.15" xml:space="preserve" shape-rendering="geometricPrecision" text-rendering="geometricPrecision" image-rendering="optimizeQuality" fill-rule="evenodd" clip-rule="evenodd" xmlns="http://www.w3.org/2000/svg"><defs id="ydefs28"><style id="ystyle26" type="text/css">.yfil0{fill:#2b2a29;fill-rule:nonzero}</style></defs><g id="yLayer_x0020_1"><path id="ypath31" d="M4.26 3.32c.49.49.73 1.13.73 1.76v.07h-.52v-.07c0-.51-.19-1.01-.58-1.4a1.96 1.96 0 00-1.4-.58c-.51 0-1.01.19-1.4.58-.39.39-.58.89-.58 1.4v.07h-.52v-.07c0-.64.24-1.28.73-1.76.49-.49 1.13-.73 1.76-.73.64 0 1.28.24 1.76.73z" class="yfil0"/><path id="ypath33" d="M3.05 1.86a.78.78 0 00.23-.55c0-.2-.08-.4-.23-.55A.78.78 0 002.5.53c-.2 0-.4.08-.55.23a.78.78 0 00-.23.55c0 .2.08.4.23.55.15.15.35.23.55.23.2 0 .4-.08.55-.23zm.75-.55c0 .33-.13.67-.38.92s-.59.38-.92.38c-.33 0-.67-.13-.92-.38s-.38-.59-.38-.92c0-.33.13-.67.38-.92s.59-.38.92-.38c.33 0 .67.13.92.38s.38.59.38.92z" class="yfil0"/></g></symbol><symbol viewBox="0 0 511.962 511.962" id="vk" xmlns="http://www.w3.org/2000/svg"><path d="M507.399 370.471c-1.376-2.304-9.888-20.8-50.848-58.816-42.88-39.808-37.12-33.344 14.528-102.176 31.456-41.92 44.032-67.52 40.096-78.464-3.744-10.432-26.88-7.68-26.88-7.68l-76.928.448s-5.696-.768-9.952 1.76c-4.128 2.496-6.784 8.256-6.784 8.256s-12.192 32.448-28.448 60.032c-34.272 58.208-48 61.28-53.6 57.664-13.024-8.416-9.76-33.856-9.76-51.904 0-56.416 8.544-79.936-16.672-86.016-8.384-2.016-14.528-3.36-35.936-3.584-27.456-.288-50.72.096-63.872 6.528-8.768 4.288-15.52 13.856-11.392 14.4 5.088.672 16.608 3.104 22.72 11.424 7.904 10.72 7.616 34.848 7.616 34.848s4.544 66.4-10.592 74.656c-10.4 5.664-24.64-5.888-55.2-58.72-15.648-27.04-27.488-56.96-27.488-56.96s-2.272-5.568-6.336-8.544c-4.928-3.616-11.84-4.768-11.84-4.768l-73.152.448s-10.976.32-15.008 5.088c-3.584 4.256-.288 13.024-.288 13.024s57.28 133.984 122.112 201.536c59.488 61.92 127.008 57.856 127.008 57.856h30.592s9.248-1.024 13.952-6.112c4.352-4.672 4.192-13.44 4.192-13.44s-.608-41.056 18.464-47.104c18.784-5.952 42.912 39.68 68.48 57.248 19.328 13.28 34.016 10.368 34.016 10.368l68.384-.96s35.776-2.208 18.816-30.336z"/></symbol></svg>