<svg xmlns="http://www.w3.org/2000/svg" width="18" height="20" viewBox="0 0 18 20"><defs><clipPath id="resia"><path fill="#fff" d="M5 0a3 3 0 1 1 0 6 3 3 0 0 1 0-6z"/></clipPath><clipPath id="resib"><path fill="#fff" d="M9 7a3 3 0 1 1 0 6 3 3 0 0 1 0-6z"/></clipPath><clipPath id="resic"><path fill="#fff" d="M13 14a3 3 0 1 1 0 6 3 3 0 0 1 0-6z"/></clipPath></defs><g><g><path fill="#e4e4e4" d="M0 2h18v2H0zm0 7h18v2H0zm0 7h18v2H0z"/><path fill="#1e2026" d="M0 2h18v2H0zm0 7h18v2H0zm0 7h18v2H0z"/></g><g><path fill="#e4e4e4" d="M5 0a3 3 0 1 1 0 6 3 3 0 0 1 0-6z"/><path fill="#fff" d="M5 0a3 3 0 1 1 0 6 3 3 0 0 1 0-6z"/><path fill="none" stroke="#1e2026" stroke-linecap="round" stroke-linejoin="round" stroke-miterlimit="20" stroke-width="4" d="M5 0a3 3 0 1 1 0 6 3 3 0 0 1 0-6z" clip-path="url(&quot;#resia&quot;)"/></g><g><path fill="#e4e4e4" d="M9 7a3 3 0 1 1 0 6 3 3 0 0 1 0-6z"/><path fill="#fff" d="M9 7a3 3 0 1 1 0 6 3 3 0 0 1 0-6z"/><path fill="none" stroke="#1e2026" stroke-linecap="round" stroke-linejoin="round" stroke-miterlimit="20" stroke-width="4" d="M9 7a3 3 0 1 1 0 6 3 3 0 0 1 0-6z" clip-path="url(&quot;#resib&quot;)"/></g><g><path fill="#e4e4e4" d="M13 14a3 3 0 1 1 0 6 3 3 0 0 1 0-6z"/><path fill="#fff" d="M13 14a3 3 0 1 1 0 6 3 3 0 0 1 0-6z"/><path fill="none" stroke="#1e2026" stroke-linecap="round" stroke-linejoin="round" stroke-miterlimit="20" stroke-width="4" d="M13 14a3 3 0 1 1 0 6 3 3 0 0 1 0-6z" clip-path="url(&quot;#resic&quot;)"/></g></g></svg>